<svg width="126" height="67" viewBox="0 0 126 67" fill="none" xmlns="http://www.w3.org/2000/svg">
<line x1="45.6725" y1="19.6222" x2="60.6725" y2="6.62216" stroke="#4880FF"/>
<line x1="46.3201" y1="46.6159" x2="58.3201" y2="56.6159" stroke="#4880FF"/>
<circle cx="61" cy="6" r="6" fill="#4880FF"/>
<circle opacity="0.8" cx="61" cy="6" r="4" fill="#171821"/>
<path d="M16.52 47.44C13.48 47.44 10.88 46.84 8.72 45.64C6.56 44.44 4.89333 42.76 3.72 40.6C2.57333 38.4133 2 35.84 2 32.88C2 29.92 2.57333 27.36 3.72 25.2C4.89333 23.04 6.56 21.36 8.72 20.16C10.88 18.96 13.48 18.36 16.52 18.36C18.3867 18.36 20.1733 18.6533 21.88 19.24C23.5867 19.8267 24.9867 20.6267 26.08 21.64L24.16 26.56C22.96 25.6267 21.7467 24.9467 20.52 24.52C19.32 24.0667 18.0533 23.84 16.72 23.84C14.0533 23.84 12.0267 24.6267 10.64 26.2C9.25333 27.7467 8.56 29.9733 8.56 32.88C8.56 35.7867 9.25333 38.0267 10.64 39.6C12.0267 41.1733 14.0533 41.96 16.72 41.96C18.0533 41.96 19.32 41.7467 20.52 41.32C21.7467 40.8667 22.96 40.1733 24.16 39.24L26.08 44.16C24.9867 45.1733 23.5867 45.9733 21.88 46.56C20.1733 47.1467 18.3867 47.44 16.52 47.44ZM42.2872 47.44C40.2072 47.44 38.3005 47.0933 36.5672 46.4C34.8605 45.7067 33.3939 44.72 32.1672 43.44C30.9405 42.16 29.9939 40.6267 29.3272 38.84C28.6872 37.0533 28.3672 35.0667 28.3672 32.88C28.3672 30.6667 28.6872 28.68 29.3272 26.92C29.9939 25.1333 30.9405 23.6133 32.1672 22.36C33.3939 21.08 34.8605 20.0933 36.5672 19.4C38.3005 18.7067 40.2072 18.36 42.2872 18.36C44.3939 18.36 46.3005 18.7067 48.0072 19.4C49.7139 20.0933 51.1805 21.0667 52.4072 22.32C53.6339 23.5733 54.5805 25.0933 55.2472 26.88C55.9139 28.6667 56.2472 30.6533 56.2472 32.84C56.2472 35.0533 55.9139 37.0533 55.2472 38.84C54.5805 40.6267 53.6339 42.16 52.4072 43.44C51.1805 44.72 49.7139 45.7067 48.0072 46.4C46.3005 47.0933 44.3939 47.44 42.2872 47.44ZM42.2872 42.16C43.8872 42.16 45.2339 41.8 46.3272 41.08C47.4205 40.3333 48.2605 39.2667 48.8472 37.88C49.4605 36.4667 49.7672 34.8 49.7672 32.88C49.7672 30.9333 49.4739 29.2667 48.8872 27.88C48.3005 26.4933 47.4472 25.44 46.3272 24.72C45.2072 24 43.8605 23.64 42.2872 23.64C40.7405 23.64 39.4072 24 38.2872 24.72C37.1672 25.44 36.3139 26.4933 35.7272 27.88C35.1405 29.2667 34.8472 30.9333 34.8472 32.88C34.8472 34.8 35.1405 36.4667 35.7272 37.88C36.3139 39.2667 37.1672 40.3333 38.2872 41.08C39.4072 41.8 40.7405 42.16 42.2872 42.16ZM61.0431 47V18.8H67.2431V47H61.0431ZM72.8791 47V18.8H77.4791L92.6391 38.12H91.5591V18.8H97.3191V47H92.7591L77.5991 27.64H78.6391V47H72.8791Z" fill="#4880FF"/>
<path d="M109.716 47V23.92H100.396V18.8H125.236V23.92H115.916V47H109.716Z" fill="white"/>
<rect x="57" y="55" width="12" height="12" fill="#4880FF"/>
<rect x="59" y="57" width="8" height="8" fill="#202D4D"/>
</svg>
